<?xml version="1.0" standalone="no"?>
<!DOCTYPE svg PUBLIC "-//W3C//DTD SVG 20010904//EN"
 "http://www.w3.org/TR/2001/REC-SVG-20010904/DTD/svg10.dtd">
<svg version="1.0" xmlns="http://www.w3.org/2000/svg"
 width="512.000000pt" height="512.000000pt" viewBox="0 0 512.000000 512.000000"
 preserveAspectRatio="xMidYMid meet">
<metadata>
Created by potrace 1.14, written by Peter Selinger 2001-2017
</metadata>
<g transform="translate(0.000000,512.000000) scale(0.100000,-0.100000)"
fill="#000000" stroke="none">
<path d="M3635 4750 c-122 -11 -268 -59 -340 -114 -16 -13 -91 -106 -165 -207
-313 -426 -848 -1110 -1324 -1689 l-176 -215 -68 -23 c-95 -32 -495 -157 -567
-177 -59 -16 -61 -18 -88 -74 -49 -103 -26 -228 52 -294 35 -29 53 -35 116
-39 l39 -3 -211 -245 c-116 -135 -245 -284 -286 -331 -57 -65 -73 -89 -64 -98
6 -6 16 -11 21 -11 7 0 10 -30 7 -85 -14 -343 263 -714 634 -849 64 -23 102
-30 191 -34 216 -9 297 37 486 278 135 172 340 450 567 770 706 993 959 1336
1205 1630 297 356 512 572 773 778 81 64 95 80 115 130 19 49 23 75 23 182 0
112 -3 131 -27 188 -43 104 -89 172 -173 257 -149 150 -362 254 -555 271 -36
3 -74 6 -85 8 -11 1 -56 0 -100 -4z m-271 -517 c-582 -830 -1335 -1743 -1969
-2388 -98 -99 -142 -142 -99 -95 43 47 151 162 240 255 602 634 1287 1474
1819 2232 66 94 122 170 124 168 2 -2 -50 -79 -115 -172z m266 -230 c-212
-370 -555 -806 -1000 -1268 -69 -71 -296 -305 -506 -520 -209 -214 -420 -433
-469 -485 -49 -52 -104 -111 -123 -130 l-35 -35 30 40 c47 60 236 259 664 696
514 525 717 743 923 992 211 255 380 495 516 735 29 51 55 91 57 88 3 -2 -23
-53 -57 -113z m274 -50 c-172 -294 -473 -696 -768 -1028 -161 -181 -366 -406
-461 -505 -420 -441 -687 -728 -864 -930 -96 -109 -94 -108 -90 -93 8 25 317
367 623 688 908 954 1273 1395 1557 1882 29 51 55 90 57 88 2 -2 -22 -48 -54
-102z m124 -325 c-74 -95 -224 -290 -333 -433 -109 -143 -220 -287 -245 -320
-26 -33 -193 -251 -371 -485 -179 -234 -374 -489 -435 -567 -60 -77 -139 -181
-177 -230 -374 -490 -426 -556 -401 -513 8 15 515 679 732 959 100 129 253
330 483 631 583 765 873 1140 877 1135 2 -2 -57 -81 -130 -177z m-2980 -1344
c12 -4 22 -10 22 -15 0 -4 -14 -3 -31 3 -89 31 -161 -97 -115 -205 31 -75 111
-116 161 -83 56 37 75 136 40 210 -24 49 -10 59 25 18 60 -72 49 -203 -20
-252 -42 -30 -110 -27 -151 7 -67 57 -97 172 -64 250 29 69 62 86 133 67z m-2
-39 c24 -18 7 -19 -26 0 -16 9 -19 14 -9 15 8 0 24 -7 35 -15z m-76 -15 c-38
-38 -19 -154 29 -180 57 -30 98 17 88 102 -4 28 -2 48 4 48 15 0 29 -47 29
-101 0 -42 -5 -55 -29 -80 -16 -16 -37 -29 -46 -29 -56 0 -115 79 -115 156 0
39 31 104 50 104 5 0 1 -9 -10 -20z m56 -66 c0 -17 6 -28 12 -26 17 3 15 -23
-2 -37 -28 -24 -66 42 -46 79 15 29 35 20 36 -16z m29 -93 c-8 -13 -42 -14
-49 -2 -4 5 2 7 13 4 10 -3 22 0 26 7 4 6 9 9 12 6 3 -2 2 -9 -2 -15z m220
-681 c140 -38 211 -78 296 -166 41 -43 85 -93 97 -111 l23 -32 -45 -19 c-24
-11 -61 -26 -81 -33 -36 -13 -37 -13 -58 16 -76 107 -222 223 -334 265 -87 34
-186 45 -255 31 -296 -63 -288 -472 14 -746 82 -74 155 -117 253 -150 69 -24
92 -27 170 -23 130 6 205 53 252 156 25 57 23 200 -6 281 -12 35 -20 65 -19
67 2 2 41 12 87 23 l83 19 19 -42 c57 -129 64 -314 17 -418 -35 -75 -85 -128
-160 -169 -56 -29 -74 -34 -156 -37 -113 -5 -192 9 -294 53 -366 158 -627 584
-542 887 15 51 22 61 64 87 48 30 135 64 205 81 68 16 280 5 370 -20z m-142
-108 c31 -11 85 -37 119 -58 67 -40 228 -194 228 -217 0 -8 -27 -25 -59 -39
l-59 -26 -54 71 c-95 127 -231 208 -353 211 -152 3 -200 -130 -111 -309 122
-247 442 -382 537 -228 19 31 21 44 16 118 l-6 83 61 12 c33 6 66 14 73 16 16
7 53 -100 62 -177 11 -112 -41 -215 -132 -259 -50 -24 -155 -29 -226 -10 -133
36 -298 161 -388 295 -74 112 -94 171 -95 285 -1 86 2 99 27 142 49 84 127
121 238 114 36 -3 91 -13 122 -24z m-107 -107 c93 -27 215 -127 279 -227 15
-25 16 -28 1 -28 -8 0 -25 18 -36 41 -85 166 -324 238 -376 114 -19 -47 -18
-74 8 -142 15 -42 38 -75 82 -119 68 -68 126 -94 209 -94 64 0 102 35 112 103
6 36 12 47 25 47 29 0 42 -103 19 -154 -45 -99 -229 -57 -368 83 -150 151
-187 329 -78 376 41 18 62 18 123 0z m102 -122 c96 -68 154 -175 131 -242 -46
-130 -302 8 -334 181 -7 37 12 91 37 102 7 3 35 4 61 2 37 -2 62 -13 105 -43z"/>
</g>
</svg>
